<svg width="38" height="40" viewBox="0 0 38 40" fill="none" xmlns="http://www.w3.org/2000/svg">
<path d="M30.8127 9.975C27.7355 8.35625 23.6505 7.5 19 7.5C14.3495 7.5 10.2645 8.35625 7.18734 9.975C4.11023 11.5937 2.375 13.8719 2.375 16.25V23.75C2.375 26.1281 4.12953 28.4141 7.18734 30.025C10.2452 31.6359 14.3495 32.5 19 32.5C23.6505 32.5 27.7355 31.6438 30.8127 30.025C33.8898 28.4063 35.625 26.1281 35.625 23.75V16.25C35.625 13.8719 33.8705 11.5859 30.8127 9.975ZM17.8125 24.975V29.975C14.9922 29.8781 12.6172 29.4406 10.6875 28.8047V23.9141C13.0137 24.5665 15.4057 24.9237 17.8125 24.9781V24.975ZM20.1875 24.975C22.5943 24.9206 24.9863 24.5634 27.3125 23.9109V28.8031C25.3828 29.4391 23.0078 29.8766 20.1875 29.9734V24.975ZM4.75 23.75V20.8641C5.49741 21.5169 6.31554 22.0744 7.18734 22.525C7.54805 22.7141 7.92953 22.8922 8.3125 23.0609V27.8125C5.96273 26.5875 4.75 25.0453 4.75 23.75ZM29.6875 27.8125V23.0609C30.0749 22.8922 30.452 22.7141 30.8127 22.525C31.6845 22.0744 32.5026 21.5169 33.25 20.8641V23.75C33.25 25.0453 32.0373 26.5875 29.6875 27.8125Z" fill="#FFCF40"/>
</svg>
